<?xml version="1.0" encoding="utf-8"?>
<!-- Generator: Adobe Illustrator 25.2.3, SVG Export Plug-In . SVG Version: 6.00 Build 0)  -->
<svg version="1.1" id="Layer_1" xmlns="http://www.w3.org/2000/svg" xmlns:xlink="http://www.w3.org/1999/xlink" x="0px" y="0px"
	 viewBox="0 0 500 200" style="enable-background:new 0 0 500 200;" xml:space="preserve">
<style type="text/css">
	.st0{fill:#3AB06D;}
	.st1{fill:#093860;}
</style>
<g>
	<path class="st0" d="M212,81.7h28.3l-0.8,4.7c-0.3,2-2,3.7-4.1,3.7h-25c-1.9,0.1-3.4,1.3-3.9,3l0.5-3l0.8-4.7
		C208.1,83.3,209.8,81.7,212,81.7z"/>
	<path class="st0" d="M127.8,87l-6.6,6.3c-1.4-2.4-3.8-3.6-7.1-3.6c-7.2,0-11.5,4.8-11.5,12.8c0,4.9,3,7.9,7.6,7.9
		c3.2,0,6.1-1.2,8.5-3.6l5.1,7.5c-3.7,3.1-8.4,4.7-14.1,4.7c-5.1,0-9.2-1.4-12.2-4.3c-3-2.9-4.5-6.8-4.5-11.7
		c0-5.9,2.1-11.1,6.3-15.4c4.2-4.3,9.3-6.5,15.3-6.5C120.9,81.1,124.4,83,127.8,87z"/>
	<path class="st0" d="M189.2,81.7c3.4,0,6.2,1,8.5,3c2.3,2,3.5,4.6,3.5,7.8c0,5.5-3.2,10-8.2,12.2l5.6,13.6h-10.2l-4.8-12.2h-4.3
		l-2.1,12.2h-9.5l6.4-36.6L189.2,81.7L189.2,81.7z M182.2,89.8l-1.5,8.2h5.7c2.8,0,5.2-1.9,5.2-4.9c0-2-1.4-3.3-3.7-3.3H182.2
		L182.2,89.8z"/>
	<path class="st1" d="M271.4,85.3l-5.9,7.1c-1.9-1.8-4.6-2.8-7.8-2.8c-2.8,0-4.9,0.9-4.9,2.8c0,1.4,1.2,2.2,5.3,3
		c7.9,1.5,10.9,4.9,10.9,10.3c0,9.4-8,13.2-16,13.2c-6.1,0-10.9-1.8-14.3-5.4l5.9-7.2c0.9,1.2,2.2,2.2,3.9,2.9c1.7,0.7,3.5,1,5.3,1
		c3.6,0,5.5-1,5.5-2.9c0-1.4-1.2-2.2-5.5-3.1c-7-1.4-10.5-4.8-10.5-10.2c0-3.7,1.4-6.9,4.2-9.3c2.8-2.5,6.4-3.7,10.7-3.7
		C263.8,81,268.2,82.5,271.4,85.3z"/>
	<path class="st1" d="M306.9,81.7l-1.4,8.3h-11.2l-5,28.3h-9.5l5-28.3h-11.2l1.4-8.3H306.9L306.9,81.7z"/>
	<path class="st1" d="M370.5,86.9l-6.6,6.3c-1.4-2.4-3.8-3.6-7.1-3.6c-7.2,0-11.5,4.8-11.5,12.8c0,4.9,3,7.9,7.6,7.9
		c3.2,0,6.1-1.2,8.5-3.6l5.1,7.5c-3.7,3.1-8.4,4.7-14.1,4.7c-5.1,0-9.2-1.4-12.2-4.3c-3-2.9-4.5-6.8-4.5-11.7
		c0-5.9,2.1-11.1,6.3-15.4c4.2-4.3,9.3-6.5,15.4-6.5C363.5,81,367.1,82.9,370.5,86.9z"/>
	<path class="st1" d="M389.4,98.9L407,81.7h-11.2L382.2,95l2.4-13.4h-9.4l-6.4,36.6h9.4l2-11.3l2-2l8.3,13.3h11.1L389.4,98.9z"/>
	<path class="st0" d="M209.5,95.8h28.3l-0.8,4.7c-0.3,2-2,3.7-4.1,3.7h-25c-1.9,0.1-3.4,1.3-3.9,3l0.5-3l0.8-4.7
		C205.6,97.4,207.4,95.8,209.5,95.8z"/>
	<path class="st0" d="M202.1,118.3l0.8-4.7c0.3-2,2-3.6,4.1-3.6h28.3l-0.8,4.7c-0.3,2-2,3.7-4.1,3.7H202.1z"/>
	<path class="st0" d="M164.9,118.3l-10.1-24l-5.3-12.7l-3.8,5.7l-20.6,30.9v0h9.5v0h1.7l11.3-17l7.2,17L164.9,118.3z"/>
	<path class="st1" d="M335.4,117.6l-10.1-24L319.9,81l-3.8,5.7l-20.6,30.9v0h9.5v0h1.7l11.3-17l7.2,17L335.4,117.6z"/>
</g>
</svg>
